<?xml version="1.0" standalone="no"?>
<!DOCTYPE svg PUBLIC "-//W3C//DTD SVG 20010904//EN"
 "http://www.w3.org/TR/2001/REC-SVG-20010904/DTD/svg10.dtd">
<svg version="1.0" xmlns="http://www.w3.org/2000/svg"
 width="470.000000pt" height="200.000000pt" viewBox="0 0 470.000000 200.000000"
 preserveAspectRatio="xMidYMid meet">
<metadata>
Created by potrace 1.16, written by Peter Selinger 2001-2019
</metadata>
<g transform="translate(0.000000,200.000000) scale(0.100000,-0.100000)"
fill="#000000" stroke="none">
<path d="M645 1789 c-293 -44 -520 -269 -590 -584 -24 -107 -17 -300 15 -400
90 -283 311 -492 597 -566 90 -23 264 -27 353 -9 187 39 354 134 497 283 68
71 143 166 143 181 0 2 -26 -23 -57 -56 -127 -133 -311 -244 -478 -289 -114
-31 -281 -31 -388 -1 -206 59 -363 186 -453 367 -98 198 -98 395 -1 595 159
326 586 403 822 149 168 -183 121 -487 -93 -590 -73 -35 -188 -33 -264 4 -66
32 -120 90 -136 146 -34 113 4 231 93 286 146 90 341 -30 306 -188 -7 -29 -6
-36 2 -28 6 6 13 40 15 74 3 50 0 72 -16 104 -62 120 -219 165 -349 99 -64
-32 -106 -78 -139 -151 -77 -168 5 -379 181 -466 225 -110 495 -18 609 209
194 385 -72 805 -529 835 -44 3 -107 1 -140 -4z"/>
<path d="M3120 989 l0 -341 58 4 57 3 5 161 c5 164 8 177 50 211 22 18 96 16
114 -3 9 -8 17 -16 18 -17 1 -1 4 -81 7 -177 l6 -175 55 0 55 0 3 184 c2 167
1 188 -18 225 -26 54 -66 78 -134 78 -57 1 -86 -11 -128 -50 l-28 -26 0 132 0
132 -60 0 -60 0 0 -341z"/>
<path d="M1548 1258 c11 -18 59 -103 108 -188 l89 -155 5 -130 5 -130 58 -1
57 -1 0 121 0 121 71 125 c38 69 88 158 110 198 l40 72 -65 0 -65 0 -72 -126
c-83 -147 -66 -149 -162 19 l-61 107 -69 0 -69 0 20 -32z"/>
<path d="M4050 1286 c0 -2 -47 -141 -105 -307 -58 -167 -105 -309 -105 -315 0
-8 20 -12 62 -11 l61 2 25 73 24 72 121 0 122 0 25 -72 25 -73 63 -2 c34 0 62
3 62 9 0 5 -48 148 -106 319 l-107 309 -83 0 c-46 0 -84 -2 -84 -4z m130 -253
l38 -118 -80 -3 c-44 -2 -83 -1 -85 2 -4 4 62 218 74 239 8 14 14 1 53 -120z"/>
<path d="M4530 969 l0 -320 60 2 60 2 0 319 0 318 -60 0 -60 0 0 -321z"/>
<path d="M2297 1139 c-46 -7 -129 -48 -142 -70 -4 -5 5 -28 20 -51 l27 -40 21
21 c28 25 89 51 122 51 42 0 65 -17 65 -50 0 -35 -15 -44 -91 -58 -137 -26
-179 -62 -179 -153 0 -53 3 -63 34 -96 32 -35 38 -37 105 -41 70 -4 71 -4 107
32 28 28 39 34 45 24 5 -7 9 -16 9 -20 0 -14 59 -38 90 -38 52 0 66 13 62 59
-3 35 -7 40 -30 43 l-27 3 -5 150 c-4 124 -8 156 -23 179 -31 47 -116 69 -210
55z m120 -301 c-8 -68 -36 -98 -92 -98 -22 0 -46 5 -53 12 -14 14 -16 67 -3
87 7 11 107 45 145 50 5 1 6 -22 3 -51z"/>
<path d="M2785 1141 c-85 -14 -135 -66 -135 -141 0 -79 38 -116 150 -145 85
-22 100 -31 100 -59 0 -64 -110 -70 -175 -10 l-29 27 -33 -37 c-18 -19 -33
-40 -33 -45 0 -15 60 -57 99 -70 19 -6 64 -11 100 -11 126 0 197 62 188 164
-6 72 -49 108 -151 131 -80 18 -106 34 -106 65 0 38 81 54 130 25 51 -29 53
-29 82 4 16 18 27 38 25 44 -6 20 -80 54 -127 59 -25 3 -63 2 -85 -1z"/>
</g>
</svg>
